<svg id="Captcha-Logo-color" xmlns="http://www.w3.org/2000/svg" width="26.601" height="30.72" viewBox="0 0 26.601 30.72">
  <g id="c" transform="translate(0 0)">
    <path id="Pfad_27" data-name="Pfad 27" d="M453.787,50.449l4.162-4.32a6.136,6.136,0,1,0,.347,8.664Z" transform="translate(-438.533 -35.275)" fill="#61b180"/>
    <path id="Pfad_28" data-name="Pfad 28" d="M454.113,50.11l3.836-3.981a6.132,6.132,0,0,0-8.535,8.8Z" transform="translate(-438.533 -35.275)" fill="#e0ad41"/>
    <path id="Pfad_29" data-name="Pfad 29" d="M449.506,49.755a6.128,6.128,0,0,0-.093,8.685l4.386-4.5Z" transform="translate(-438.533 -38.784)" fill="#ca3d5c"/>
    <g id="Gruppe_4843" data-name="Gruppe 4843" transform="translate(0)">
      <path id="Pfad_26" data-name="Pfad 26" d="M446.822,42.889a14.928,14.928,0,0,1-11.182,4.59c-8.416,0-15.419-5.061-15.419-15.36s7-15.36,15.419-15.36a13.777,13.777,0,0,1,10.476,4.3l-4.531,4.767a8.813,8.813,0,0,0-5.827-2.3c-4.825,0-8.357,3.531-8.357,8.592,0,5.532,3.767,8.474,8.239,8.474A8.723,8.723,0,0,0,442,38.181Z" transform="translate(-420.221 -16.759)" fill="#68c1eb"/>
    </g>
  </g>
</svg>
